<svg xmlns="http://www.w3.org/2000/svg" width="116" height="48"><title xml:lang="en">Libero Logo</title><g id="logo"><path fill="#732060" d="M41 12.69l-9 5.2V41.4l9-5.33V12.69z"/><path fill="#cf0c4e" d="M22.25 12.26L32 17.89l9-5.2-9.63-5.7-9.12 5.27z"/><path fill="#629f43" d="M1 25.68v10.39l20.25 11.7v-10.4L1 25.68z"/><path fill="#046535" d="M31 31.75l-9.75 5.62v10.4L31 41.99V31.75z"/><path fill="#0961ab" d="M1 12.69v11.26l9 5.2V17.89l-9-5.2z"/><path fill="#0a9dd9" d="M1 12.69l9 5.2L30.14 6.26 21.25 1 1 12.69z"/></g><path id="text" fill="#212121" d="M51 30.63V19.3h2.75v9h4.39v2.38zm10 0V19.3h2.75v11.33zm15.54-3.29a3.16 3.16 0 0 1-.37 1.56 2.87 2.87 0 0 1-1 1 4.12 4.12 0 0 1-1.38.55 7 7 0 0 1-1.59.17h-4.5V19.3h4.52a7 7 0 0 1 1.34.14 4.24 4.24 0 0 1 1.25.46 2.76 2.76 0 0 1 .91.89 2.7 2.7 0 0 1 .35 1.43 2.36 2.36 0 0 1-.51 1.56 2.84 2.84 0 0 1-1.34.88 3.06 3.06 0 0 1 .9.29 2.91 2.91 0 0 1 .74.55 2.77 2.77 0 0 1 .49.79 2.67 2.67 0 0 1 .19 1.05zm-3.11-4.76a.92.92 0 0 0-.44-.84 2.64 2.64 0 0 0-1.3-.26h-1.35v2.34h1.48A2 2 0 0 0 73 23.5a1.06 1.06 0 0 0 .43-.92zm.37 4.5a1 1 0 0 0-.53-1 3.1 3.1 0 0 0-1.41-.27h-1.52v2.59h1.54a3.81 3.81 0 0 0 .66-.05 2.45 2.45 0 0 0 .63-.2 1.16 1.16 0 0 0 .63-1.09zm6.14 3.55V19.3h7.62v2.31h-5v2.14h4.71v2.19h-4.69v2.36h5.27v2.33zm17.38 0l-2.46-4.49h-.93v4.49h-2.67V19.3h4.32a7.66 7.66 0 0 1 1.59.17 4.08 4.08 0 0 1 1.39.57 2.94 2.94 0 0 1 1 1.06 3.22 3.22 0 0 1 .37 1.63 3 3 0 0 1-.62 1.93 3.34 3.34 0 0 1-1.73 1.12l3 4.85zm-.11-7.85a1.14 1.14 0 0 0-.17-.65 1.1 1.1 0 0 0-.44-.39 1.77 1.77 0 0 0-.59-.18 4.72 4.72 0 0 0-.64 0h-1.46v2.64h1.3a5.62 5.62 0 0 0 .7 0 2.65 2.65 0 0 0 .64-.2 1.27 1.27 0 0 0 .47-.42 1.18 1.18 0 0 0 .19-.8zm18.06 2.14a6.34 6.34 0 0 1-.46 2.46 5.61 5.61 0 0 1-1.29 1.9 5.56 5.56 0 0 1-2 1.22 6.84 6.84 0 0 1-2.46.44 6.77 6.77 0 0 1-2.46-.44 5.57 5.57 0 0 1-3.24-3.12 6.34 6.34 0 0 1-.46-2.46 6.24 6.24 0 0 1 .46-2.46 5.35 5.35 0 0 1 1.29-1.86 5.66 5.66 0 0 1 2-1.18 7 7 0 0 1 2.45-.42 7.06 7.06 0 0 1 2.46.42 5.61 5.61 0 0 1 2 1.18 5.35 5.35 0 0 1 1.29 1.86 6.24 6.24 0 0 1 .42 2.46zm-2.93 0a3.93 3.93 0 0 0-.24-1.38 3.31 3.31 0 0 0-.66-1.09 2.86 2.86 0 0 0-1-.72 3.36 3.36 0 0 0-2.64 0 3.05 3.05 0 0 0-1 .72 3 3 0 0 0-.66 1.09 3.93 3.93 0 0 0-.24 1.38 4.11 4.11 0 0 0 .24 1.42 3.26 3.26 0 0 0 .67 1.11 3.08 3.08 0 0 0 1 .73 3.34 3.34 0 0 0 1.32.26 3.29 3.29 0 0 0 1.31-.26 3.23 3.23 0 0 0 1-.73 3.26 3.26 0 0 0 .67-1.11 4.11 4.11 0 0 0 .23-1.42z"/></svg>