<svg xmlns="http://www.w3.org/2000/svg" width="156" height="189"><g fill="none" stroke="#212121" stroke-linecap="round" stroke-miterlimit="10" stroke-width="4"><path d="M13 131h63m-52 46s0-13 12-13h84s12 0 12 13H24z"/><path d="M24 177s0-13 12-13h84s12 0 12 13H24zm86-109.1c13.1 9.7 21.5 25.2 21.5 42.6 0 2.9-.2 5.7-.7 8.5m-16.7 30.7c-9.4 8.6-21.9 13.8-35.6 13.8-21.9 0-40.8-13.4-48.8-32.4"/><path d="M95.6 82.5c9.8 5.7 16.4 16.4 16.4 28.5 0 18.2-14.8 33-33 33-10.7 0-20.1-5-26.2-12.9m77.135-117.575l12.728 12.727-6.364 6.364L123.57 19.89z"/><path d="M121.449 17.767l16.97 16.97-13.435 13.436-16.97-16.97zM83 94.2l43.8-43.8-21.2-21.2L61.8 73h-5.7l-3.2 3.2 26.9 26.9 3.2-3.2z"/><circle cx="122.5" cy="134.5" r="16.5"/><circle cx="122.5" cy="134.5" r="6.5"/></g><circle cx="47" cy="112" r="5" fill="#cf0c4e"/></svg>