<svg xmlns="http://www.w3.org/2000/svg" width="175" height="160"><path d="M163 47l-18-30M31 71l-5-8m47 76l-5-8m14-35L70 76m21 25h30l15-25m-15-35H85L70 66m-33 65h30l15-25M61 71H31l-18 30 15 25" fill="none" stroke="#212121" stroke-linecap="round" stroke-miterlimit="10" stroke-width="4"/><g fill="none" stroke="#212121" stroke-miterlimit="10" stroke-width="4"><circle cx="67" cy="71" r="5"/><circle cx="31" cy="131" r="5"/><circle cx="138" cy="71" r="5"/><g stroke="#cf0c4e"><circle cx="85" cy="101" r="5"/><circle cx="76" cy="143" r="5"/><circle cx="23" cy="59" r="5"/><circle cx="117" cy="17" r="5"/></g></g></svg>