<svg xmlns="http://www.w3.org/2000/svg" width="181" height="198"><title xml:lang="en">Server error</title><circle cx="92" cy="110" r="5" fill="#cf0c4e"/><path fill="none" stroke="#212121" stroke-linecap="round" stroke-miterlimit="10" stroke-width="4" d="M92 130v39m0-140v61m20 20h39m-119 0h40m33.9-14.4l29.9-29.8m-73.6 73.4l15.4-15.3m0-27.8L61.2 79.8m72.4 72.3l-27.7-27.7"/><g fill="none" stroke="#212121" stroke-linecap="round" stroke-miterlimit="10" stroke-width="4"><path d="M46 65h10v10H46zm41 111h10v10H87z" class="st2"/><circle cx="92" cy="16.5" r="4.5" class="st2"/><circle cx="53" cy="148" r="5" class="st2"/><circle cx="164" cy="110" r="5" class="st2"/><path stroke="#cf0c4e" d="M18 104v12m-6-6h12m118 44v12m-6-6h12m-4-109v12m-6-6h12" class="st3"/></g></svg>